# Exported from Wings 3D 2.1.5
mtllib ship.mtl
o Cube1
#48 vertices, 92 faces
v -0.55555556 -0.57731000 -0.55972975
v -3.49220444 -0.70783668 -0.26203165
v -0.41400000 0.40327444 -0.96262975
v -0.75111111 9.8712197e-2 0.57217884
v 0.55555556 -0.57731000 -0.55972975
v 3.49220444 -0.70783668 -0.26203165
v 0.41400000 0.40327444 -0.96262975
v 0.75111111 9.8712197e-2 0.57217884
v -0.75000000 -0.79894750 -9.3919472e-3
v -0.75000000 -4.8947503e-2 -0.75939195
v 0.0000000e+0 -0.75000000 -0.75000000
v -0.75000000 -0.34263252 0.68425637
v 0.0000000e+0 -0.84789501 0.73121611
v -0.89155556 0.40736748 0.31211117
v 0.0000000e+0 1.68374060 -2.02341496
v 0.0000000e+0 0.36325516 0.91440289
v 0.75000000 -0.79894750 -9.3919472e-3
v 0.75000000 -4.8947503e-2 -0.75939195
v 0.75000000 -0.34263252 0.68425637
v 0.89155556 0.40736748 0.31211117
v 0.0000000e+0 0.80904517 0.20197068
v 0.0000000e+0 -1.00000000 0.0000000e+0
v 0.0000000e+0 -0.15200580 1.65004285
v 0.0000000e+0 0.0000000e+0 -1.00000000
v 1.00000000 -0.19579001 -3.7567789e-2
v -1.00000000 -0.19579001 -3.7567789e-2
v -1.36984209 0.63075258 -0.99425146
v -0.89228653 0.62665954 -2.26899237
v -1.22828653 0.17443760 -0.91770981
v -1.47828653 2.7595093e-2 -0.19588565
v 0.89228653 0.62665954 -2.26899237
v 1.36984209 0.63075258 -0.99425146
v 1.47828653 2.7595093e-2 -0.19588565
v 1.22828653 0.17443760 -0.91770981
v 0.0000000e+0 -0.84789501 3.94585817
v 0.0000000e+0 -0.39158002 2.29247331
v 1.42888889 -0.70783668 1.89394505
v 0.75000000 -0.34263252 2.05186526
v -0.75000000 -0.34263252 2.05186526
v -1.42888889 -0.70783668 1.89394505
v 0.16213323 0.34509222 0.81605233
v 0.16945565 0.28108944 0.92779998
v 0.0000000e+0 0.22005691 1.03418636
v -0.16945565 0.28108944 0.92779998
v -0.16213323 0.34509222 0.81605233
v 0.16008467 0.71027536 0.23228920
v 0.0000000e+0 1.65125792 -1.50764199
v -0.16008467 0.71027536 0.23228920
vn -0.52873877 -0.59918261 -0.60117844
vn -0.44390181 -0.44520094 -0.77765501
vn -0.59749275 0.38815958 -0.70166556
vn -0.72086125 0.33913856 0.60443701
vn 0.52873877 -0.59918261 -0.60117844
vn 0.44390181 -0.44520094 -0.77765501
vn 0.59749275 0.38815958 -0.70166556
vn 0.72086125 0.33913856 0.60443701
vn -0.59837337 -0.75008034 -0.28165369
vn -0.35971155 -0.54646436 -0.75629644
vn 0.0000000e+0 -0.70835428 -0.70585708
vn -0.69286918 0.70293775 0.16065749
vn 0.0000000e+0 -0.99853053 5.4192125e-2
vn -0.57398261 0.62309646 0.53131419
vn 0.0000000e+0 -0.17276077 -0.98496382
vn 1.1952874e-16 0.79807738 0.60255497
vn 0.59837337 -0.75008034 -0.28165369
vn 0.35971155 -0.54646436 -0.75629644
vn 0.69286918 0.70293775 0.16065749
vn 0.57398261 0.62309646 0.53131419
vn -4.0430662e-17 0.86517588 0.50146853
vn 0.0000000e+0 -0.98135865 -0.19218531
vn 0.0000000e+0 0.89541025 0.44524206
vn 1.5075424e-17 -0.37184667 -0.92829416
vn 0.85240545 -0.51928174 6.1248791e-2
vn -0.85240545 -0.51928174 6.1248791e-2
vn -0.72670877 0.68413586 -6.2068381e-2
vn -0.57483790 -0.41640209 -0.70439385
vn -0.41387062 -0.77043860 -0.48490770
vn -0.90090971 -0.38808874 0.19429055
vn 0.57483790 -0.41640209 -0.70439385
vn 0.72670877 0.68413586 -6.2068381e-2
vn 0.90090971 -0.38808874 0.19429055
vn 0.41387062 -0.77043860 -0.48490770
vn 0.0000000e+0 -0.25987880 0.96564124
vn 2.1933908e-17 0.79042542 0.61255829
vn 0.63149611 0.41707608 0.65365144
vn 0.31607499 0.86750198 0.38410535
vn -0.31607499 0.86750198 0.38410535
vn -0.63149611 0.41707608 0.65365144
vn 0.40796758 0.74536130 0.52725609
vn 0.43979798 0.60502290 0.66372059
vn 2.6573420e-16 0.56717654 0.82359624
vn -0.43979798 0.60502290 0.66372059
vn -0.40796758 0.74536130 0.52725609
vn 0.52586697 0.79811276 0.29407474
vn -7.0282299e-17 0.94279680 0.33336797
vn -0.52586697 0.79811276 0.29407474
g Cube1_default
usemtl default
s 1
f 1//1 22//22 9//9
f 1//1 24//24 11//11
f 1//1 26//26 10//10
f 2//2 9//9 13//13
f 2//2 40//40 12//12
f 3//3 24//24 10//10
f 3//3 27//27 14//14
f 3//3 47//47 15//15
f 4//4 26//26 12//12
f 4//4 43//43 44//44
f 4//4 45//45 14//14
f 5//5 22//22 11//11
f 5//5 24//24 18//18
f 5//5 25//25 17//17
f 6//6 17//17 19//19
f 6//6 37//37 13//13
f 7//7 24//24 15//15
f 7//7 34//34 18//18
f 7//7 46//46 20//20
f 8//8 23//23 19//19
f 8//8 25//25 20//20
f 8//8 41//41 42//42
f 8//8 43//43 23//23
f 9//9 26//26 1//1
f 10//10 24//24 1//1
f 10//10 29//29 3//3
f 11//11 22//22 1//1
f 11//11 24//24 5//5
f 12//12 9//9 2//2
f 12//12 23//23 4//4
f 12//12 39//39 23//23
f 12//12 40//40 39//39
f 13//13 17//17 6//6
f 13//13 37//37 35//35
f 13//13 40//40 2//2
f 14//14 26//26 4//4
f 14//14 30//30 26//26
f 14//14 45//45 48//48
f 14//14 48//48 3//3
f 15//15 24//24 3//3
f 15//15 47//47 7//7
f 16//16 41//41 21//21
f 16//16 43//43 42//42
f 16//16 44//44 43//43
f 17//17 22//22 5//5
f 18//18 24//24 7//7
f 18//18 25//25 5//5
f 18//18 34//34 25//25
f 19//19 25//25 8//8
f 19//19 37//37 6//6
f 20//20 32//32 7//7
f 20//20 41//41 8//8
f 21//21 41//41 46//46
f 21//21 45//45 16//16
f 22//22 13//13 9//9
f 22//22 17//17 13//13
f 23//23 38//38 19//19
f 23//23 39//39 36//36
f 23//23 43//43 4//4
f 25//25 19//19 17//17
f 25//25 33//33 20//20
f 26//26 9//9 12//12
f 26//26 29//29 10//10
f 27//27 3//3 28//28
f 27//27 30//30 14//14
f 28//28 3//3 29//29
f 28//28 29//29 27//27
f 29//29 26//26 30//30
f 30//30 27//27 29//29
f 31//31 7//7 32//32
f 31//31 34//34 7//7
f 32//32 20//20 33//33
f 32//32 34//34 31//31
f 33//33 25//25 34//34
f 33//33 34//34 32//32
f 35//35 37//37 36//36
f 35//35 40//40 13//13
f 36//36 38//38 23//23
f 36//36 40//40 35//35
f 38//38 36//36 37//37
f 38//38 37//37 19//19
f 39//39 40//40 36//36
f 42//42 41//41 16//16
f 42//42 43//43 8//8
f 44//44 45//45 4//4
f 45//45 44//44 16//16
f 46//46 7//7 47//47
f 46//46 41//41 20//20
f 46//46 47//47 21//21
f 47//47 3//3 48//48
f 47//47 48//48 21//21
f 48//48 45//45 21//21
